<svg viewBox="0 0 400 600" xmlns="http://www.w3.org/2000/svg">
  <!-- Skull -->
  <path d="M160 40 Q200 10 240 40 Q260 60 260 80 Q260 120 200 140 Q140 120 140 80 Q140 60 160 40" fill="none" stroke="black" stroke-width="2"/>
  <circle cx="175" cy="65" r="8" fill="black"/> <!-- Left eye socket -->
  <circle cx="225" cy="65" r="8" fill="black"/> <!-- Right eye socket -->
  <path d="M185 90 Q200 100 215 90" fill="none" stroke="black" stroke-width="2"/> <!-- Nose -->
  <path d="M180 110 Q200 120 220 110" fill="none" stroke="black" stroke-width="2"/> <!-- Jaw -->
  
  <!-- Spine -->
  <path d="M200 140 Q200 170 200 400" fill="none" stroke="black" stroke-width="3"/>
  <!-- Vertebrae -->
  <rect x="190" y="160" width="20" height="10" fill="none" stroke="black"/>
  <rect x="190" y="180" width="20" height="10" fill="none" stroke="black"/>
  <rect x="190" y="200" width="20" height="10" fill="none" stroke="black"/>
  <rect x="190" y="220" width="20" height="10" fill="none" stroke="black"/>
  
  <!-- Ribcage -->
  <path d="M200 160 Q160 180 140 200" fill="none" stroke="black" stroke-width="2"/>
  <path d="M200 160 Q240 180 260 200" fill="none" stroke="black" stroke-width="2"/>
  <path d="M200 180 Q150 200 130 220" fill="none" stroke="black" stroke-width="2"/>
  <path d="M200 180 Q250 200 270 220" fill="none" stroke="black" stroke-width="2"/>
  <path d="M200 200 Q140 220 120 240" fill="none" stroke="black" stroke-width="2"/>
  <path d="M200 200 Q260 220 280 240" fill="none" stroke="black" stroke-width="2"/>
  
  <!-- Shoulders -->
  <path d="M200 160 Q120 170 100 190" fill="none" stroke="black" stroke-width="3"/>
  <path d="M200 160 Q280 170 300 190" fill="none" stroke="black" stroke-width="3"/>
  
  <!-- Arms -->
  <path d="M100 190 L90 300" fill="none" stroke="black" stroke-width="2"/>
  <path d="M300 190 L310 300" fill="none" stroke="black" stroke-width="2"/>
  <!-- Forearms -->
  <path d="M90 300 L85 400" fill="none" stroke="black" stroke-width="2"/>
  <path d="M310 300 L315 400" fill="none" stroke="black" stroke-width="2"/>
  
  <!-- Hands -->
  <path d="M85 400 L80 420 M85 400 L85 420 M85 400 L90 420 M85 400 L95 420 M85 400 L100 420" fill="none" stroke="black"/>
  <path d="M315 400 L310 420 M315 400 L315 420 M315 400 L320 420 M315 400 L325 420 M315 400 L330 420" fill="none" stroke="black"/>
  
  <!-- Pelvis -->
  <path d="M160 400 Q200 380 240 400 Q260 420 240 440 Q200 460 160 440 Q140 420 160 400" fill="none" stroke="black" stroke-width="2"/>
  
  <!-- Legs -->
  <path d="M180 440 L170 520" fill="none" stroke="black" stroke-width="2"/>
  <path d="M220 440 L230 520" fill="none" stroke="black" stroke-width="2"/>
  
  <!-- Lower Legs -->
  <path d="M170 520 L160 580" fill="none" stroke="black" stroke-width="2"/>
  <path d="M230 520 L240 580" fill="none" stroke="black" stroke-width="2"/>
  
  <!-- Feet -->
  <path d="M160 580 L140 590 L160 590" fill="none" stroke="black"/>
  <path d="M240 580 L220 590 L240 590" fill="none" stroke="black"/>
</svg>